<?xml version="1.0" encoding="iso-8859-1"?>
<!-- Uploaded to: SVG Repo, www.svgrepo.com, Generator: SVG Repo Mixer Tools -->
<svg fill="#000000" height="800px" width="800px" version="1.1" id="Layer_1" xmlns="http://www.w3.org/2000/svg" xmlns:xlink="http://www.w3.org/1999/xlink" 
	 viewBox="0 0 512 512" xml:space="preserve">
<g>
	<g>
		<path d="M509.069,107.419L442.413,7.435C439.316,2.789,434.105,0,428.522,0h-139.13h-66.783H83.478
			c-5.583,0-10.794,2.789-13.891,7.435L2.931,107.419C1.083,110.106,0,113.362,0,116.87v378.435C0,504.525,7.475,512,16.696,512
			h478.609c9.22,0,16.696-7.475,16.696-16.696V116.87C512,113.362,510.917,110.106,509.069,107.419z M306.087,33.391h113.5
			l44.522,66.783H306.087V33.391z M239.304,33.391h33.391v133.565h-33.391V33.391z M92.413,33.391h113.5v66.783H47.891
			L92.413,33.391z M478.609,478.609H33.391V133.565h172.522v50.087c0,9.22,7.475,16.696,16.696,16.696h66.783
			c9.22,0,16.696-7.475,16.696-16.696v-50.087h172.522V478.609z"/>
	</g>
</g>
<g>
	<g>
		<path d="M439.216,283.152l-33.392-33.391c-6.534-6.534-17.144-6.467-23.611,0l-33.391,33.391c-6.52,6.52-6.52,17.091,0,23.611
			c6.519,6.52,17.091,6.52,23.611,0l4.891-4.89v59.866c0,9.22,7.475,16.696,16.696,16.696s16.696-7.475,16.696-16.696v-59.867
			l4.891,4.891c6.519,6.52,17.091,6.521,23.611,0C445.736,300.242,445.736,289.672,439.216,283.152z"/>
	</g>
</g>
<g>
	<g>
		<path d="M305.651,283.152l-33.391-33.391c-6.534-6.534-17.152-6.461-23.611,0l-33.391,33.391c-6.52,6.52-6.52,17.091,0,23.611
			c6.518,6.52,17.09,6.52,23.61-0.001l4.891-4.89v59.867c0,9.22,7.475,16.696,16.696,16.696c9.22,0,16.696-7.475,16.696-16.696
			v-59.867l4.891,4.891c6.519,6.52,17.091,6.521,23.611,0C312.171,300.242,312.171,289.672,305.651,283.152z"/>
	</g>
</g>
<g>
	<g>
		<path d="M428.517,411.826H228.169c-9.22,0-16.696,7.475-16.696,16.696s7.475,16.696,16.696,16.696h200.348
			c9.22,0,16.696-7.475,16.696-16.696S437.738,411.826,428.517,411.826z"/>
	</g>
</g>
</svg>